<svg xmlns="http://www.w3.org/2000/svg" enable-background="new 0 0 64 64" viewBox="0 0 64 64"><ellipse cx="43" cy="7" fill="#efac8b" rx="4" ry="5"/><path fill="#f3be9e" d="M43,2c-0.148,0-0.287,0.035-0.431,0.054C41.621,2.969,41,4.387,41,6c0,2.761,1.791,5,4,5
		c0.148,0,0.287-0.035,0.431-0.054C46.379,10.031,47,8.613,47,7C47,4.239,45.209,2,43,2z"/><path fill="#efac8b" d="M43.999,58c1.657,0,3-1.343,3-3l0,0l0-11.5c0-1.623,0.526-3.202,1.5-4.5l0,0
		c0.974-1.298,1.5-2.877,1.5-4.5v-4.644l0.544-0.699C52.136,27.111,53,24.592,53,22v0c0-5.523-4.477-10-10-10h0h0
		c-3.314,0-6,2.686-6,6v4l-2.045,4.772C34.325,28.242,34,29.825,34,31.424v0c0,2.332,0.69,4.611,1.984,6.551L36,38l5,16h-2
		c-1.105,0-2,0.895-2,2v0c0,1.105,0.895,2,2,2H43.999z"/><path fill="#f3be9e" d="M53,22c0-3.508-1.81-6.589-4.543-8.373C47.378,13.228,46.217,13,45,13c-3.314,0-6,2.686-6,6v4
		l-2.045,4.772C36.325,29.242,36,30.825,36,32.424c0,2.332,0.69,4.611,1.984,6.551L38,39l5,16h-2c-1.105,0-2,0.895-2,2
		c0,0.366,0.106,0.705,0.277,1h4.722c1.657,0,3-1.343,3-3l0-11.5c0-1.623,0.526-3.202,1.5-4.5c0.974-1.298,1.5-2.877,1.5-4.5v-4.644
		l0.544-0.699C52.136,27.111,53,24.592,53,22z"/><rect width="43" height="4" x="12" y="58" fill="#2b5a9e"/><rect width="14" height="8" x="9" y="22" fill="#b53131"/><rect width="4" height="28" x="17" y="30" fill="#5093d6"/><path fill="#ea916a" d="M50.544,29.157c0.357-0.458,0.671-0.943,0.953-1.444l-2.036,1.301
		c-0.096,0.061-0.181,0.138-0.25,0.228l-3.09,3.972C45.738,33.706,45.139,34,44.516,34c-0.001,0-0.001,0-0.001,0
		c-0.835,0-1.515-0.68-1.516-1.515c0-0.193,0.037-0.383,0.109-0.563l3.82-9.55l-1.857-0.743l-3.82,9.549
		c-0.167,0.418-0.252,0.858-0.252,1.308C41,34.423,42.577,36,44.515,36h0.001c1.235,0,2.426-0.583,3.184-1.557L50,31.485v-1.629
		L50.544,29.157z"/><path fill="#bf4343" d="M19,28h4v-6H11.262C12.152,25.449,15.274,28,19,28z"/><path d="M23,31c0.553,0,1-0.448,1-1v-8c0-0.552-0.447-1-1-1H9c-0.553,0-1,0.448-1,1v8c0,0.552,0.447,1,1,1h7v26h-4
		c-0.553,0-1,0.448-1,1v4c0,0.552,0.447,1,1,1h43c0.553,0,1-0.448,1-1v-4c0-0.552-0.447-1-1-1h-7.557
		c0.344-0.591,0.556-1.268,0.556-2L48,43.5c0-1.397,0.462-2.782,1.3-3.9c1.097-1.462,1.7-3.273,1.7-5.1v-4.301l0.333-0.428
		C53.053,27.561,54,24.801,54,22c0-4.919-3.246-9.093-7.708-10.496C47.336,10.404,48,8.795,48,7c0-3.309-2.243-6-5-6s-5,2.691-5,6
		c0,1.917,0.756,3.622,1.925,4.721C37.605,12.863,36,15.244,36,18v3.795l-1.964,4.583C33.349,27.982,33,29.68,33,31.424
		c0,2.488,0.716,4.9,2.088,7.008L39.64,53H39c-1.654,0-3,1.346-3,3c0,0.352,0.072,0.686,0.184,1H22V31H23z M10,23h12v6H10V23z
		 M54,61H13v-2h41V61z M40,7c0-2.206,1.346-4,3-4s3,1.794,3,4s-1.346,4-3,4S40,9.206,40,7z M38,56c0-0.551,0.448-1,1-1h2
		c0.318,0,0.617-0.151,0.806-0.408s0.244-0.587,0.148-0.891l-5-16c-0.028-0.091-0.086-0.202-0.139-0.281
		C35.628,35.639,35,33.565,35,31.424c0-1.472,0.294-2.904,0.874-4.258l2.045-4.772C37.973,22.27,38,22.135,38,22v-4
		c0-2.757,2.243-5,5-5c4.963,0,9,4.038,9,9c0,2.358-0.798,4.682-2.245,6.543l-3.634,4.671C45.738,33.706,45.139,34,44.516,34
		c-0.001,0-0.001,0-0.001,0c-0.835,0-1.515-0.68-1.516-1.515c0-0.193,0.037-0.383,0.109-0.563l3.82-9.55l-1.857-0.743l-3.82,9.549
		c-0.167,0.418-0.252,0.858-0.252,1.308C41,34.423,42.577,36,44.515,36h0.001c1.235,0,2.426-0.583,3.184-1.557L49,32.77v1.73
		c0,1.397-0.462,2.782-1.3,3.9c-1.097,1.462-1.7,3.273-1.7,5.1L45.999,55c0,1.103-0.897,2-2,2H39C38.448,57,38,56.551,38,56z M20,57
		h-2V31h2V57z"/></svg>